<?xml version="1.0" encoding="UTF-8"?>
<svg xmlns="http://www.w3.org/2000/svg" width="48" height="48" viewBox="0 0 48 48" fill="none">
  <path fill-rule="evenodd" clip-rule="evenodd" d="M13.8231 10.0111C16.5255 7.30873 20.1907 5.79055 24.0125 5.79055C27.8343 5.79055 31.4995 7.30873 34.202 10.0112C36.9042 12.7135 38.4225 16.3788 38.4225 20.2006C38.4225 25.7574 34.7633 31.3837 30.4034 35.9857C28.2973 38.2088 26.1789 40.0344 24.583 41.3051C24.3839 41.4636 24.1934 41.6132 24.0125 41.7534C23.8317 41.6132 23.6412 41.4636 23.4421 41.3051C21.8462 40.0344 19.7277 38.2089 17.6215 35.9858C13.2617 31.3837 9.6025 25.7574 9.6025 20.2006C9.6025 16.3788 11.1207 12.7136 13.8231 10.0111L13.8231 10.0111ZM24.0125 2.18805C19.2353 2.18805 14.6537 4.08577 11.2757 7.4638C7.89775 10.8418 6 15.4233 6 20.2006C6 27.2054 10.5031 33.7099 15.0062 38.4633L15.0063 38.4634C17.2578 40.8399 19.5094 42.7788 21.1981 44.1234L21.1981 44.1234C21.8876 44.6724 22.4831 45.1222 22.9462 45.4624C23.5807 45.9285 24.4445 45.9285 25.079 45.4623C25.5418 45.1223 26.1374 44.6725 26.8269 44.1234L26.827 44.1234C28.5156 42.7788 30.7672 40.8399 33.0187 38.4634C37.5219 33.71 42.025 27.2054 42.025 20.2006C42.025 15.4233 40.1272 10.8418 36.7494 7.46383L36.7493 7.46379C33.3713 4.08577 28.7897 2.18805 24.0125 2.18805ZM24.0125 12.3947C19.7017 12.3947 16.207 15.8893 16.207 20.2001C16.207 24.5109 19.7017 28.0055 24.0125 28.0055C28.3232 28.0055 31.8179 24.5109 31.8179 20.2001C31.8179 15.8893 28.3232 12.3947 24.0125 12.3947ZM19.8095 20.2001C19.8095 17.8789 21.6913 15.9972 24.0125 15.9972C26.3337 15.9972 28.2154 17.8789 28.2154 20.2001C28.2154 22.5213 26.3337 24.403 24.0125 24.403C21.6913 24.403 19.8095 22.5213 19.8095 20.2001Z" fill="white"></path>
</svg>
