<?xml version="1.0" encoding="UTF-8"?>
<svg xmlns="http://www.w3.org/2000/svg" width="23" height="24" viewBox="0 0 23 24" fill="none">
  <path fill-rule="evenodd" clip-rule="evenodd" d="M11.4217 0.867677C14.0057 0.8664 16.5131 1.74533 18.5307 3.35967C20.5037 4.94717 21.8747 7.16116 22.3917 9.59216C22.5509 10.3316 22.631 11.0858 22.6307 11.8422C22.6307 14.7886 21.4987 17.5561 19.4427 19.6381C17.3687 21.7361 14.5837 22.8911 11.6012 22.8911C10.5497 22.8911 9.20774 22.6211 8.56275 22.4411C7.78675 22.2241 7.05125 21.9426 6.97025 21.9111C6.88453 21.8783 6.79354 21.8614 6.70175 21.8611C6.60219 21.8605 6.50355 21.8801 6.41175 21.9186L6.36925 21.9351L2.99476 23.1531C2.82905 23.2229 2.65196 23.2617 2.47226 23.2676C2.1322 23.266 1.80664 23.1297 1.56698 22.8884C1.32731 22.6471 1.1931 22.3207 1.19376 21.9806C1.19674 21.8514 1.21692 21.7231 1.25376 21.5991L2.17476 18.2661C2.21326 18.1431 2.16976 18.0211 2.11326 17.9211L2.10226 17.9011C2.09826 17.8946 2.08026 17.8686 2.06576 17.8486C2.05126 17.8286 2.03676 17.8081 2.02276 17.7876L2.01326 17.7741C0.850624 16.012 0.230836 13.9473 0.230766 11.8362C0.221766 8.95666 1.34826 6.23416 3.40376 4.17217C5.53075 2.04117 8.37575 0.867677 11.4217 0.867677ZM11.4285 13.9357C12.4595 13.9357 13.2952 13.1 13.2952 12.0691C13.2952 11.0381 12.4595 10.2024 11.4285 10.2024C10.3976 10.2024 9.56186 11.0381 9.56186 12.0691C9.56186 13.1 10.3976 13.9357 11.4285 13.9357ZM16.5649 13.9357C17.5959 13.9357 18.4316 13.1 18.4316 12.0691C18.4316 11.0381 17.5959 10.2024 16.5649 10.2024C15.534 10.2024 14.6983 11.0381 14.6983 12.0691C14.6983 13.1 15.534 13.9357 16.5649 13.9357ZM8.16261 12.0692C8.16261 13.1001 7.32687 13.9359 6.29594 13.9359C5.26501 13.9359 4.42927 13.1001 4.42927 12.0692C4.42927 11.0383 5.26501 10.2025 6.29594 10.2025C7.32687 10.2025 8.16261 11.0383 8.16261 12.0692Z" fill="white"></path>
</svg>
