<?xml version="1.0" encoding="UTF-8"?>
<svg xmlns="http://www.w3.org/2000/svg" width="24" height="24" viewBox="0 0 24 24" fill="none">
  <path d="M19.1881 21.77H18.9581C16.053 21.45 13.2624 20.457 10.8081 18.87C8.53355 17.4242 6.60193 15.4994 5.14813 13.23C3.55344 10.7611 2.56017 7.9525 2.24813 5.02998C2.22018 4.67151 2.26439 4.31107 2.37813 3.96998C2.49658 3.63411 2.68008 3.32488 2.91813 3.05998C3.15817 2.79782 3.45135 2.58986 3.77813 2.44998C4.09185 2.30587 4.43288 2.23084 4.77813 2.22998H7.51813C8.14912 2.23051 8.76044 2.4496 9.24813 2.84998C9.70395 3.26114 9.99823 3.82134 10.0781 4.42998C10.1787 5.24733 10.3768 6.04971 10.6681 6.81998C10.8422 7.27802 10.88 7.77663 10.7771 8.25569C10.6742 8.73476 10.4349 9.17383 10.0881 9.51998L9.34813 10.23C10.456 11.9981 11.95 13.4921 13.7181 14.6L14.4581 13.86C14.8125 13.5328 15.2532 13.3141 15.7281 13.23C16.2056 13.1308 16.7014 13.1689 17.1581 13.34C17.9253 13.6302 18.7242 13.8282 19.5381 13.93C20.1591 14.0177 20.7265 14.3295 21.1335 14.8065C21.5406 15.2836 21.7592 15.893 21.7481 16.52V19.23C21.7477 19.7659 21.5797 20.2882 21.2677 20.7239C20.9557 21.1596 20.5153 21.4869 20.0081 21.66C19.7425 21.7407 19.4656 21.7778 19.1881 21.77ZM7.53813 3.72998H4.80813C4.66011 3.72992 4.51369 3.76056 4.37813 3.81998C4.24528 3.88243 4.12628 3.97083 4.02813 4.07998C3.92716 4.18464 3.85185 4.31129 3.80813 4.44998C3.75815 4.59098 3.73772 4.74075 3.74813 4.88998C4.0446 7.56165 4.95499 10.1285 6.40813 12.39C7.74682 14.4836 9.52451 16.2613 11.6181 17.6C13.8772 19.0454 16.4414 19.9457 19.1081 20.23C19.2501 20.2477 19.3943 20.2305 19.5281 20.18C19.6682 20.1327 19.7974 20.0579 19.9081 19.96C20.0171 19.8599 20.1024 19.737 20.1581 19.6C20.21 19.483 20.2405 19.3577 20.2481 19.23V16.46C20.2604 16.1998 20.1708 15.9451 19.9981 15.75C19.8267 15.5569 19.5933 15.4296 19.3381 15.39C18.4148 15.2688 17.5087 15.0406 16.6381 14.71C16.4419 14.6549 16.2343 14.6549 16.0381 14.71C15.8406 14.7488 15.6593 14.8464 15.5181 14.99L14.3681 16.14C14.2528 16.2571 14.1017 16.3325 13.9387 16.3542C13.7757 16.376 13.6102 16.3428 13.4681 16.26C11.0795 14.8953 9.10607 12.908 7.75813 10.51C7.67531 10.368 7.64214 10.2024 7.66387 10.0394C7.6856 9.87644 7.76099 9.72535 7.87813 9.60998L9.02813 8.45998C9.17467 8.31803 9.27429 8.13465 9.31362 7.93445C9.35294 7.73425 9.33009 7.52682 9.24813 7.33998C8.92764 6.46412 8.70626 5.55512 8.58813 4.62998C8.54785 4.38896 8.42702 4.16872 8.24538 4.00525C8.06375 3.84178 7.83205 3.74474 7.58813 3.72998H7.53813Z" fill="white"></path>
</svg>
